<svg width="201" height="200" viewBox="0 0 201 200" fill="none" xmlns="http://www.w3.org/2000/svg">
<path fill-rule="evenodd" clip-rule="evenodd" d="M52.8029 96.5953C52.7535 96.7034 52.7032 96.8111 52.6518 96.9181L52.4571 97.3241L84.6969 117.176L87.5425 112.419L65.6392 98.932L112.494 20.6091L193.917 70.7468C194.978 71.4002 195.317 72.8027 194.673 73.8793L149.893 148.733C149.25 149.809 147.867 150.152 146.806 149.499L117.601 131.515L115.269 135.414L144.474 153.397C147.657 155.358 151.803 154.329 153.736 151.099L198.515 76.2454C200.448 73.0157 199.433 68.8085 196.25 66.8483L90.9601 2.01432C87.7767 0.0541022 83.6298 1.08323 81.6977 4.31295L42.0574 70.5761C42.3036 70.6589 42.5476 70.7466 42.7892 70.8393L42.5956 71.2597L43.0424 71.4715C47.2916 73.4863 49.785 74.8811 51.3888 76.2658C52.7964 77.4811 53.5518 78.7182 54.0958 80.6549C54.2532 81.9677 54.2375 84.2794 54.0105 87.2042C53.786 90.0955 53.37 93.4056 52.8029 96.5953ZM58.6879 94.6517C59.0467 92.2332 59.3185 89.8309 59.4886 87.6397C59.7308 84.5201 59.7844 81.6226 59.5144 79.7055L59.4904 79.5346L59.4456 79.368C58.645 76.3897 57.346 74.0995 54.9553 72.0357C53.3715 70.6683 51.3402 69.4318 48.788 68.1148L85.5404 6.67915C86.1844 5.60258 87.5667 5.25954 88.6278 5.91295L107.032 17.2454L60.1763 95.5682L58.6879 94.6517Z" fill="white"/>
<path fill-rule="evenodd" clip-rule="evenodd" d="M166.539 196.663C168.163 195.165 168.162 195.164 168.162 195.164L168.156 195.158L168.141 195.141L168.084 195.077C168.045 195.034 167.991 194.975 167.923 194.901L167.867 194.84C167.677 194.633 167.398 194.332 167.039 193.949C166.318 193.184 165.269 192.089 163.945 190.764C161.299 188.117 157.549 184.541 153.127 180.823C144.373 173.465 132.655 165.268 121.544 162.997C110.599 160.758 103.735 160.642 92.7646 163.001C86.7903 164.286 82.5804 167.567 78.918 170.422C78.5441 170.714 78.176 171.001 77.8122 171.282C73.8239 174.351 70.2627 176.702 64.9401 176.634C59.8023 176.567 56.4221 174.095 52.5524 170.948C52.3229 170.761 52.0915 170.572 51.8578 170.381C48.2247 167.409 44.0277 163.976 37.8443 162.98C36.9797 162.841 36.1226 162.694 35.2719 162.549L35.0827 162.516C26.7433 161.087 19.022 159.763 10.9998 165.666C8.16519 167.752 6.23681 170.871 4.90487 174.148C3.56603 177.442 2.75903 181.068 2.26877 184.386C1.77693 187.714 1.59365 190.804 1.53241 193.058C1.50174 194.187 1.50155 195.112 1.50921 195.759C1.51304 196.083 1.51882 196.337 1.52378 196.513C1.52625 196.601 1.52851 196.669 1.53021 196.717L1.53229 196.773L1.53322 196.797C1.53322 196.797 1.53327 196.798 3.7787 196.699L1.53327 196.798L1.62623 198.98H171.582L168.163 195.165L166.539 196.663ZM120.656 167.467C110.263 165.342 104.021 165.243 93.6967 167.462C88.7663 168.522 85.341 171.182 81.6041 174.082C81.2492 174.358 80.8912 174.636 80.529 174.914C76.4156 178.081 71.8087 181.283 64.8832 181.194C58.0889 181.106 53.6518 177.687 49.7409 174.506C49.5607 174.36 49.3817 174.214 49.2036 174.069C45.4438 171.004 42.1079 168.285 37.1392 167.484C36.273 167.344 35.4344 167.204 34.6206 167.068L34.6085 167.066L34.6036 167.065L34.4476 167.039C25.8855 165.604 20.0659 164.628 13.639 169.358C11.7301 170.762 10.2192 173.037 9.06037 175.887C7.90844 178.72 7.17322 181.955 6.71416 185.061C6.2567 188.157 6.08361 191.055 6.02578 193.184C6.01358 193.633 6.00653 194.046 6.00301 194.419H161.194C161.062 194.286 160.927 194.15 160.788 194.011C158.21 191.431 154.557 187.948 150.26 184.336C141.576 177.037 130.594 169.5 120.656 167.467Z" fill="white"/>
<path fill-rule="evenodd" clip-rule="evenodd" d="M32.92 122.966C32.92 116.4 38.1684 111.065 44.6577 111.065C51.1471 111.065 56.3954 116.4 56.3954 122.966C56.3954 129.533 51.1471 134.867 44.6577 134.867C38.1684 134.867 32.92 129.533 32.92 122.966ZM44.6577 117.538C41.7133 117.538 39.3141 119.961 39.3141 122.966C39.3141 125.972 41.7133 128.395 44.6577 128.395C47.6022 128.395 50.0014 125.972 50.0014 122.966C50.0014 119.961 47.6022 117.538 44.6577 117.538Z" fill="white"/>
<path fill-rule="evenodd" clip-rule="evenodd" d="M67.1331 145.725C60.6437 145.725 55.3954 151.06 55.3954 157.627C55.3954 164.193 60.6437 169.528 67.1331 169.528C73.6224 169.528 78.8708 164.193 78.8708 157.627C78.8708 151.06 73.6225 145.725 67.1331 145.725ZM61.7895 157.627C61.7895 154.621 64.1886 152.198 67.1331 152.198C70.0775 152.198 72.4767 154.621 72.4767 157.627C72.4767 160.632 70.0775 163.055 67.1331 163.055C64.1886 163.055 61.7895 160.632 61.7895 157.627Z" fill="white"/>
<path fill-rule="evenodd" clip-rule="evenodd" d="M110.799 57.4033C114.358 55.4401 118.108 54.9888 121.133 56.6958C124.154 58.4013 125.751 61.8664 125.984 65.9646C126.217 70.0714 125.092 74.8938 122.58 79.4757C120.067 84.0573 116.621 87.5723 113.056 89.5389C109.496 91.5021 105.747 91.9534 102.723 90.2464C99.7007 88.5409 98.1039 85.0758 97.8713 80.9776C97.6383 76.8708 98.7635 72.0483 101.276 67.4665C103.788 62.8849 107.234 59.3699 110.799 57.4033ZM118.702 61.1163C119.706 61.6835 120.823 63.1771 120.996 66.2548C121.167 69.2662 120.337 73.1442 118.213 77.0182C116.089 80.892 113.279 83.6535 110.667 85.0943C107.997 86.5668 106.158 86.3927 105.153 85.8255C104.148 85.2584 103.033 83.7647 102.858 80.687C102.687 77.6756 103.518 73.7977 105.643 69.9238C107.766 66.0498 110.575 63.2884 113.188 61.8475C115.858 60.375 117.697 60.5492 118.702 61.1163Z" fill="white"/>
<path d="M98.2191 118.994L106.756 124.251L103.91 129.007L95.3734 123.751L98.2191 118.994Z" fill="white"/>
</svg>
