<svg width="200" height="200" viewBox="0 0 200 200" fill="none" xmlns="http://www.w3.org/2000/svg">
<g clip-path="url(#clip0_242_112)">
<path d="M70.7986 119.18H82.9952V106.277H70.5991L70.7986 119.18Z" fill="white"/>
<path fill-rule="evenodd" clip-rule="evenodd" d="M31.4141 -1.46826C27.8242 -1.46826 24.9141 1.44189 24.9141 5.03174C24.9141 25.5263 41.5282 42.1403 62.0225 42.1403H93.5481V49.0401C93.5162 49.6706 93.5001 50.3052 93.5001 50.9436C93.5001 51.2123 93.5164 51.4771 93.5481 51.7373V83.0371H44.5509C36.2369 83.0371 29.4971 89.7769 29.4971 98.0909V104.126C29.4971 110.743 33.7661 116.363 39.7001 118.381V137.669C39.7001 170.972 66.6973 197.969 100 197.969C133.303 197.969 160.3 170.972 160.3 137.669V118.176C165.937 116.001 169.936 110.53 169.936 104.126V98.0909C169.936 89.7769 163.196 83.0371 154.882 83.0371H106.451V57.4436H137.977C158.472 57.4436 175.086 40.8293 175.086 20.335C175.086 16.7451 172.176 13.835 168.586 13.835H130.609C120.552 13.835 111.429 17.8357 104.746 24.3325C99.9631 9.36768 85.9426 -1.46826 69.3914 -1.46826H31.4141ZM31.9224 5.74855C31.9207 5.67634 31.9193 5.60407 31.9181 5.53174H32.1257C32.0725 5.58385 32.0208 5.63781 31.9707 5.69358C31.9544 5.71175 31.9383 5.73008 31.9224 5.74855ZM62.0225 29.1403C50.9609 29.1403 41.6359 21.6881 38.7997 11.5317H69.3914C80.453 11.5317 89.778 18.984 92.6143 29.1403H62.0225ZM167.874 20.835C167.927 20.8871 167.979 20.941 168.029 20.9968L168.051 21.0215L168.078 21.0518C168.079 20.9796 168.081 20.9073 168.082 20.835H167.874ZM107.386 44.4436H137.977C149.039 44.4436 158.364 36.9912 161.2 26.835H130.609C119.547 26.835 110.222 34.2872 107.386 44.4436ZM147.397 119.18H93.198V106.277H154.882C156.07 106.277 157.033 105.314 157.033 104.126V98.0909C157.033 96.9031 156.07 95.9403 154.882 95.9403H44.5509C43.3632 95.9403 42.4004 96.9031 42.4004 98.0909V104.126C42.4004 105.314 43.3632 106.277 44.5509 106.277H58.1275L58.327 119.18H52.6034V137.669C52.6034 163.845 73.8236 185.065 100 185.065C126.177 185.065 147.397 163.845 147.397 137.669V119.18Z" fill="white"/>
</g>
<defs>
<clipPath id="clip0_242_112">
<rect width="200" height="200" fill="white"/>
</clipPath>
</defs>
</svg>
