<svg width="200" height="200" viewBox="0 0 200 200" fill="none" xmlns="http://www.w3.org/2000/svg">
<g clip-path="url(#clip0_239_6)">
<path fill-rule="evenodd" clip-rule="evenodd" d="M188.889 138.889C175.556 138.889 162.222 136.667 148.889 132.222C145.556 131.111 141.111 132.222 137.778 134.444L113.333 158.889C82.2222 143.333 56.6667 116.667 40 85.5556L64.4444 61.1111C67.7778 57.7778 68.8889 53.3333 66.6667 50C63.3333 37.7778 61.1111 24.4444 61.1111 11.1111C61.1111 4.44444 56.6667 0 50 0H11.1111C4.44444 0 0 4.44444 0 11.1111C0 115.556 84.4444 200 188.889 200C195.556 200 200 195.556 200 188.889V150C200 143.333 195.556 138.889 188.889 138.889ZM177.778 100H200C200 44.4444 155.556 0 100 0V22.2222C143.333 22.2222 177.778 56.6667 177.778 100ZM133.333 100H155.556C155.556 68.8889 131.111 44.4444 100 44.4444V66.6667C118.889 66.6667 133.333 81.1111 133.333 100Z" fill="white"/>
</g>
<defs>
<clipPath id="clip0_239_6">
<rect width="200" height="200" fill="white"/>
</clipPath>
</defs>
</svg>
