<svg width="200" height="200" viewBox="0 0 200 200" fill="none" xmlns="http://www.w3.org/2000/svg">
<g clip-path="url(#clip0_239_28)">
<path fill-rule="evenodd" clip-rule="evenodd" d="M37.5308 88.1177C33.8305 88.1177 30.8309 91.1327 30.8309 94.852V111.441C30.8309 115.16 33.8305 118.175 37.5308 118.175H41.4385V142.787C41.4385 174.666 67.15 200.51 98.8667 200.51H101.722C133.439 200.51 159.151 174.666 159.151 142.787V118.175H162.469C166.17 118.175 169.169 115.16 169.169 111.441V94.852C169.169 91.1327 166.17 88.1177 162.469 88.1177H37.5308ZM82.6151 118.175H69.8755L69.7866 112.403H82.6151V118.175ZM93.2228 118.175H153.408V142.787C153.408 171.478 130.267 194.738 101.722 194.738H98.8667C70.3216 194.738 47.1813 171.478 47.1813 142.787V118.175H56.9091L56.8203 112.403H44.3099H37.5308C37.0023 112.403 36.5737 111.973 36.5737 111.441V94.852C36.5737 94.3207 37.0023 93.8899 37.5308 93.8899H162.469C162.998 93.8899 163.426 94.3207 163.426 94.852V111.441C163.426 111.973 162.998 112.403 162.469 112.403H156.279H93.2228V118.175Z" fill="white"/>
<path d="M102.871 34.7328C102.871 33.1388 101.586 31.8467 100 31.8467C98.4141 31.8467 97.1285 33.1388 97.1285 34.7328H102.871ZM102.871 89.2275V34.7328H97.1285V89.2275H102.871Z" fill="white"/>
<path fill-rule="evenodd" clip-rule="evenodd" d="M28.6933 0.510254C27.4643 0.510254 26.468 1.51168 26.468 2.74701V8.7578C26.468 24.3388 39.0344 36.9697 54.536 36.9697H98.8457C98.1481 39.4308 97.7747 42.0291 97.7747 44.7152V50.726C97.7747 51.9613 98.771 52.9628 100 52.9628H145.464C160.966 52.9628 173.532 40.3317 173.532 24.7508V18.7399C173.532 17.5046 172.536 16.5032 171.307 16.5032H125.843C115.931 16.5032 107.219 21.667 102.225 29.4641V28.7222C102.225 13.1412 89.6589 0.510254 74.1573 0.510254H28.6933ZM30.9186 8.7578V4.98376H74.1573C87.2008 4.98376 97.7747 15.6118 97.7747 28.7222V32.4962H54.536C41.4925 32.4962 30.9186 21.8682 30.9186 8.7578ZM102.225 44.7152C102.225 31.6048 112.799 20.9767 125.843 20.9767H169.081V24.7508C169.081 37.8611 158.508 48.4893 145.464 48.4893H102.225V44.7152Z" fill="white"/>
</g>
<defs>
<clipPath id="clip0_239_28">
<rect width="200" height="200" fill="white"/>
</clipPath>
</defs>
</svg>
