<svg width="200" height="200" viewBox="0 0 200 200" fill="none" xmlns="http://www.w3.org/2000/svg">
<g clip-path="url(#clip0_239_33)">
<g filter="url(#filter0_d_239_33)">
<path fill-rule="evenodd" clip-rule="evenodd" d="M50.0348 4.61616C42.8723 -1.87697 31.8297 -1.32411 25.3462 5.86873C-11.0158 46.2095 -7.87761 108.488 32.3384 144.945L87.9772 195.384C91.3366 198.429 95.5497 199.925 99.7455 199.912C100.099 199.913 100.452 199.901 100.804 199.877C105.191 199.598 109.479 197.667 112.666 194.132C113.108 193.641 113.545 193.147 113.974 192.651L118.154 189.956L147.53 171.141C148.658 170.418 149.756 169.667 150.823 168.889L161.573 161.957C200.425 136.904 211.701 84.963 186.691 45.9545C181.905 38.49 172.035 36.3643 164.638 41.134L119.364 70.3285C115.417 64.8745 110.852 59.7491 105.674 55.0549L50.0348 4.61616ZM172.142 142.217C194.524 117.508 198.593 79.883 179.709 50.4306C177.398 46.8254 172.669 45.8229 169.132 48.1038L117.042 81.6935L114.78 78.2756C110.712 72.1265 105.819 66.38 100.104 61.1991L44.4649 10.7604C40.7034 7.35041 34.9178 7.63638 31.5063 11.4212C2.00197 44.1538 0.894757 92.6622 26.6343 126.518C17.9647 101.257 22.9493 72.1791 42.1936 50.9734C47.8173 44.7765 57.3625 44.3085 63.5637 49.8923L105.576 87.7211C109.119 90.9107 112.293 94.3601 115.094 98.015L147.771 77.0857C154.234 72.9457 162.878 74.767 167.096 81.2988C179.302 100.209 180.421 123.032 172.142 142.217ZM100.256 191.602C100.083 191.612 99.9095 191.618 99.7362 191.619C98.1103 191.611 96.4819 191.027 95.178 189.853L53.1649 152.024C25.3767 127.003 23.2034 84.2396 48.3348 56.5466C50.8858 53.7356 55.204 53.5246 58.0144 56.0552L100.027 93.8842C104.115 97.5646 107.645 101.625 110.614 105.96L112.886 109.277L152.244 84.0692C154.877 82.3824 158.4 83.1199 160.129 85.7969C176.468 111.11 170.031 144.47 146.119 162.055L113.668 182.98L106.343 187.672L105.948 188.13C105.595 188.539 105.232 188.948 104.858 189.361C103.617 190.729 101.957 191.481 100.256 191.602Z" fill="white"/>
</g>
</g>
<defs>
<filter id="filter0_d_239_33" x="-4" y="0.0878906" width="208" height="207.824" filterUnits="userSpaceOnUse" color-interpolation-filters="sRGB">
<feFlood flood-opacity="0" result="BackgroundImageFix"/>
<feColorMatrix in="SourceAlpha" type="matrix" values="0 0 0 0 0 0 0 0 0 0 0 0 0 0 0 0 0 0 127 0" result="hardAlpha"/>
<feOffset dy="4"/>
<feGaussianBlur stdDeviation="2"/>
<feComposite in2="hardAlpha" operator="out"/>
<feColorMatrix type="matrix" values="0 0 0 0 0 0 0 0 0 0 0 0 0 0 0 0 0 0 0.25 0"/>
<feBlend mode="normal" in2="BackgroundImageFix" result="effect1_dropShadow_239_33"/>
<feBlend mode="normal" in="SourceGraphic" in2="effect1_dropShadow_239_33" result="shape"/>
</filter>
<clipPath id="clip0_239_33">
<rect width="200" height="200" fill="white"/>
</clipPath>
</defs>
</svg>
